<svg id="Layer_1" height="512" viewBox="0 0 512 512" width="512" xmlns="http://www.w3.org/2000/svg" data-name="Layer 1"><path d="m307.88 181.02c24.89 3.35 170.91 25.86 188.78 94.34 0 0 8.81 30.15-19.41 62.04-7.89 8.92-18.69 17.98-33.39 26.55 0 0-28.7 17.68-73.34-34.47 0 0-36.66-38.9-55.48-93.31a189.894 189.894 0 0 1 -10.76-55.61s1.27.15 3.6.46z" fill="#fedb41"/><path d="m314.06 242.33c.29-2.05.61-4.1.98-6.16 18.82 54.41 55.48 93.31 55.48 93.31 44.64 52.15 73.34 34.47 73.34 34.47 14.7-8.57 25.5-17.63 33.39-26.55l1.94.75c4.76 8.96 7.66 24.31 8.08 34 0 0 3.84 52.53-71.86 77.32 0 0-32.52 11.54-66-50.25a248.4 248.4 0 0 1 -13.46-26.95q-1.59-3.66-3.23-7.73a294.054 294.054 0 0 1 -15.98-53.03c-4.23-21.46-6.07-45.19-2.68-69.18z" fill="#f4b844"/><path d="m335.95 372.27c-.58 1.58-2.77 6.87-3.38 8.4-16.24 40.57-50.49 82.32-69.97 82.32-23.03 0-68.26-45.64-84.26-92.06l-.1-.04q1.23-3.03 2.51-6.31c44.02 4 106.75 3.67 151.9-.01l.07-.03q1.635 4.065 3.23 7.73z" fill="#00efd1"/><path d="m332.72 364.54-.07.03c-45.15 3.68-107.88 4.01-151.9.01a327.164 327.164 0 0 0 15.65-53.05c37.71 3.66 81.57 3.36 120.28-.01l.06-.01a294.054 294.054 0 0 0 15.98 53.03z" fill="#00acea"/><path d="m316.74 311.51-.06.01c-38.71 3.37-82.57 3.67-120.28.01 4.32-21.59 6.47-45.38 3.74-69.2 33 3.21 80.04 2.94 113.92 0-3.39 23.99-1.55 47.72 2.68 69.18z" fill="#00efd1"/><path d="m208.81 176.98c13.83-14.34 30.16-22.62 47.65-22.62 17.05 0 33.38 8.25 47.08 22.01q2.22 2.235 4.34 4.65c-2.33-.31-3.6-.46-3.6-.46a189.894 189.894 0 0 0 10.76 55.61c-.37 2.06-.69 4.11-.98 6.16-33.88 2.94-80.92 3.21-113.92 0q-.63-5.46-1.6-10.91h-.01a186.9 186.9 0 0 0 9.19-50.86s-.87.1-2.49.32c1.16-1.35 2.36-2.65 3.58-3.9z" fill="#00acea"/><path d="m310.71 149.28a54.335 54.335 0 0 1 -7.17 27.09c-13.7-13.76-30.03-22.01-47.08-22.01-17.49 0-33.82 8.28-47.65 22.62a54.714 54.714 0 1 1 101.9-27.7z" fill="#00efd1"/><path d="m205.23 180.88c1.62-.22 2.49-.32 2.49-.32a186.9 186.9 0 0 1 -9.19 50.86c-18.24 56.88-57.05 98.06-57.05 98.06-44.64 52.15-73.34 34.47-73.34 34.47-13.07-7.62-23.05-15.62-30.64-23.57-31.53-32.96-22.16-65.02-22.16-65.02 18.16-69.59 168.65-91.7 189.89-94.48z" fill="#fedb41"/><path d="m200.14 242.33c2.73 23.82.58 47.61-3.74 69.2a327.164 327.164 0 0 1 -15.65 53.05q-1.275 3.285-2.51 6.31a276.41 276.41 0 0 1 -13.27 28.33c-33.48 61.79-66 50.25-66 50.25-75.7-24.79-71.86-77.32-71.86-77.32.47-10.9 4.08-21.37 9.95-31.34l.44-.43c7.59 7.95 17.57 15.95 30.64 23.57 0 0 28.7 17.68 73.34-34.47 0 0 38.81-41.18 57.05-98.06h.01q.975 5.445 1.6 10.91z" fill="#f4b844"/><path d="m502.449 273.782c-18.349-70.011-158.079-93.709-191.586-98.407l-.027-.03a60.694 60.694 0 0 0 -26.709-79.84l10.944-45.08a6 6 0 0 0 -11.662-2.83l-10.531 43.38a60.426 60.426 0 0 0 -33.756 0l-10.531-43.375a6 6 0 1 0 -11.662 2.83l10.944 45.08a60.689 60.689 0 0 0 -26.693 79.87c-15.243 2.134-54.579 8.514-93.994 22.015-56.581 19.381-89.429 45.08-97.634 76.39-.684 2.428-8.788 34.078 20.471 67.315-5.457 10.211-8.456 20.532-8.905 30.73-.091 1.544-.635 15.561 8.22 32.464 14.985 28.608 45.107 43.452 67.747 50.868a27.957 27.957 0 0 0 8.475 1.146c13.067 0 39.051-6.953 64.662-54.191.365-.649 3.514-6.313 7.863-15.793a199.218 199.218 0 0 0 35.378 52.15c18.237 19.395 36.144 30.516 49.137 30.516 14.216 0 30.031-15.273 40.795-28.087a223.517 223.517 0 0 0 32.9-53.575c4.239 8.662 7.353 13.946 7.905 14.868 25.6 47.178 51.562 54.117 64.621 54.116a27.985 27.985 0 0 0 8.473-1.145c41.006-13.434 59.476-35.077 67.748-50.867 8.854-16.9 8.311-30.914 8.22-32.463-.451-10.222-3.292-25.025-7.916-34.78 25.204-31.74 17.754-60.947 17.103-63.275zm-204.098-94.082a5.917 5.917 0 0 0 -.068 1.058 195.082 195.082 0 0 0 10.585 55.883l-.016.1c-32.707 2.521-73.714 2.538-103.388.05-.237-1.669-.5-3.314-.778-4.947a192.365 192.365 0 0 0 9.031-51.079c0-.066 0-.13 0-.2 12.975-13.211 27.737-20.2 42.747-20.2 14.482-.005 28.942 6.689 41.887 19.335zm-91.569 69.23c14.552 1.134 31.541 1.7 48.89 1.7 17.557 0 35.472-.583 51.567-1.745a214.775 214.775 0 0 0 2.412 57.181c-35.724 2.751-73.682 2.779-106.143.075a231.275 231.275 0 0 0 3.274-57.211zm-5.621 69.052c16.789 1.444 35.037 2.172 53.733 2.172 18.942 0 38.319-.749 57.061-2.231a297.369 297.369 0 0 0 12.245 41.267c-42.822 3-95.948 3.025-135.061.065a330.146 330.146 0 0 0 12.022-41.273zm54.839-217.412a48.679 48.679 0 0 1 45.586 65.837c-13.943-11.832-29.4-18.047-45.126-18.047-16.164 0-31.872 6.413-45.831 18.608a48.68 48.68 0 0 1 45.371-66.398zm-234.9 176.474c.016-.057.032-.112.047-.169 8.841-33.882 53.784-55.752 89.928-68.133 37.19-12.738 74.464-18.985 90.343-21.268-1.07 13.7-4.417 27.835-8.417 42.111-18 54.839-55.417 95.376-55.794 95.777-.065.07-.176.141-.237.214-21.332 24.919-38.3 32.558-48.758 34.576-10.786 2.08-16.748-1.222-16.913-1.313a.994.994 0 0 0 -.13-.075 132.973 132.973 0 0 1 -29.329-22.535c-28.54-29.829-21.065-58.029-20.74-59.185zm138.645 119.226-.051.091c-16.028 29.582-31.384 40.881-41.445 45.151-10.386 4.407-17.083 2.362-17.272 2.3a1.211 1.211 0 0 0 -.14-.047c-29.1-9.531-50.031-24.88-60.526-44.392-7.873-14.635-7.222-26.7-7.216-26.788 0-.06.008-.119.009-.179a58.1 58.1 0 0 1 5.812-22.288 152.852 152.852 0 0 0 26.189 19c1 .589 6.742 3.7 16.27 3.7 14.19 0 36.772-6.9 64.574-39.342 2.313-2.473 29.935-32.537 49.262-76.513a230.1 230.1 0 0 1 -4.693 53.375 319.185 319.185 0 0 1 -15.362 52.061c-.838 2.16-1.668 4.233-2.468 6.207a274.3 274.3 0 0 1 -12.943 27.664zm167.255-17.83a210.009 210.009 0 0 1 -32.794 54.745c-14.744 17.551-25.994 23.805-31.606 23.805-17.923 0-61.191-39.991-77.889-86.047 20.43 1.673 44.98 2.511 70.076 2.511 25.375 0 51.3-.856 74.052-2.567.209.5.419.982.629 1.477-.46 1.144-1.006 2.482-1.463 3.6-.433 1.06-.805 1.977-1.005 2.476zm147.069 20.936c-10.5 19.512-31.424 34.861-60.576 44.408-.281.091-6.98 2.133-17.362-2.272-10.061-4.27-25.417-15.569-41.445-45.151-.045-.083-.093-.167-.142-.248a245.51 245.51 0 0 1 -13.091-26.236c-1.058-2.433-2.123-4.981-3.171-7.586a286.4 286.4 0 0 1 -15.655-51.941 214.2 214.2 0 0 1 -4.173-49.662c19.236 41.976 45.373 70.42 47.6 72.8 27.8 32.441 50.384 39.342 64.574 39.341 9.521 0 15.266-3.11 16.269-3.7a148.614 148.614 0 0 0 29.533-22.148 99.251 99.251 0 0 1 4.848 25.431c0 .038.006.109.008.147.005.118.655 12.182-7.217 26.817zm-1.313-65.951c-8.159 9.224-18.9 17.751-31.96 25.367-.248.142-6.2 3.444-16.984 1.363-10.458-2.018-27.4-9.657-48.735-34.576-.06-.071-.125-.143-.189-.212-.356-.379-35.641-38.282-53.88-90.328a5.948 5.948 0 0 0 -.667-1.95 187.785 187.785 0 0 1 -9.67-45.621c15.446 2.231 54.293 8.715 92.254 21.963 35.3 12.32 79.208 34.021 87.929 67.444.009.035.028.1.038.137.308 1.114 7.353 27.608-18.136 56.413z" fill="#083863"/></svg>