<svg id="Layer_1" height="512" viewBox="0 0 512 512" width="512" xmlns="http://www.w3.org/2000/svg" data-name="Layer 1"><path d="m307.88 181.02c24.89 3.35 170.91 25.86 188.78 94.34 0 0 8.81 30.15-19.41 62.04-7.89 8.92-18.69 17.98-33.39 26.55 0 0-28.7 17.68-73.34-34.47 0 0-36.66-38.9-55.48-93.31a189.894 189.894 0 0 1 -10.76-55.61s1.27.15 3.6.46z" fill="#fedb41"/><path d="m314.06 242.33c.29-2.05.61-4.1.98-6.16 18.82 54.41 55.48 93.31 55.48 93.31 44.64 52.15 73.34 34.47 73.34 34.47 14.7-8.57 25.5-17.63 33.39-26.55l1.94.75c4.76 8.96 7.66 24.31 8.08 34 0 0 3.84 52.53-71.86 77.32 0 0-32.52 11.54-66-50.25a248.4 248.4 0 0 1 -13.46-26.95q-1.59-3.66-3.23-7.73a294.054 294.054 0 0 1 -15.98-53.03c-4.23-21.46-6.07-45.19-2.68-69.18z" fill="#f4b844"/><path d="m335.95 372.27c-.58 1.58-2.77 6.87-3.38 8.4-16.24 40.57-50.49 82.32-69.97 82.32-23.03 0-68.26-45.64-84.26-92.06l-.1-.04q1.23-3.03 2.51-6.31c44.02 4 106.75 3.67 151.9-.01l.07-.03q1.635 4.065 3.23 7.73z" fill="#00efd1"/><path d="m332.72 364.54-.07.03c-45.15 3.68-107.88 4.01-151.9.01a327.164 327.164 0 0 0 15.65-53.05c37.71 3.66 81.57 3.36 120.28-.01l.06-.01a294.054 294.054 0 0 0 15.98 53.03z" fill="#00acea"/><path d="m316.74 311.51-.06.01c-38.71 3.37-82.57 3.67-120.28.01 4.32-21.59 6.47-45.38 3.74-69.2 33 3.21 80.04 2.94 113.92 0-3.39 23.99-1.55 47.72 2.68 69.18z" fill="#00efd1"/><path d="m208.81 176.98c13.83-14.34 30.16-22.62 47.65-22.62 17.05 0 33.38 8.25 47.08 22.01q2.22 2.235 4.34 4.65c-2.33-.31-3.6-.46-3.6-.46a189.894 189.894 0 0 0 10.76 55.61c-.37 2.06-.69 4.11-.98 6.16-33.88 2.94-80.92 3.21-113.92 0q-.63-5.46-1.6-10.91h-.01a186.9 186.9 0 0 0 9.19-50.86s-.87.1-2.49.32c1.16-1.35 2.36-2.65 3.58-3.9z" fill="#00acea"/><path d="m205.23 180.88c1.62-.22 2.49-.32 2.49-.32a186.9 186.9 0 0 1 -9.19 50.86c-18.24 56.88-57.05 98.06-57.05 98.06-44.64 52.15-73.34 34.47-73.34 34.47-13.07-7.62-23.05-15.62-30.64-23.57-31.53-32.96-22.16-65.02-22.16-65.02 18.16-69.59 168.65-91.7 189.89-94.48z" fill="#fedb41"/><path d="m180.75 364.58q-1.275 3.285-2.51 6.31a276.41 276.41 0 0 1 -13.27 28.33c-33.48 61.79-66 50.25-66 50.25-75.7-24.79-71.86-77.32-71.86-77.32.47-10.9 4.08-21.37 9.95-31.34l.44-.43c7.59 7.95 17.57 15.95 30.64 23.57 0 0 28.7 17.68 73.34-34.47 0 0 38.81-41.18 57.05-98.06h.01q.975 5.445 1.6 10.91c2.73 23.82.58 47.61-3.74 69.2a327.164 327.164 0 0 1 -15.65 53.05z" fill="#f4b844"/><path d="m277.235 104.481a6 6 0 0 1 -5.836-7.416l12.01-49.47a6 6 0 0 1 11.662 2.83l-12.009 49.475a6 6 0 0 1 -5.827 4.581z" fill="#fedb41"/><path d="m234.765 104.481a6 6 0 0 1 -5.827-4.585l-12.009-49.471a6 6 0 1 1 11.662-2.83l12.01 49.47a6 6 0 0 1 -5.836 7.416z" fill="#fedb41"/><path d="m310.71 149.28a54.335 54.335 0 0 1 -7.17 27.09c-13.7-13.76-30.03-22.01-47.08-22.01-17.49 0-33.82 8.28-47.65 22.62a54.714 54.714 0 1 1 101.9-27.7z" fill="#00efd1"/></svg>